# xmcd
#
# Track frame offsets: 
#        150
#        18398
#        35287
#        66864
#        94487
#        113477
#        154467
#
# Disc length: 2407 seconds
#
# Revision: 0
# Processed by: cddbd v1.5.2PL0 Copyright (c) Steve Scherf et al.
# Submitted via: ExactAudioCopy v1.3
#
DISCID=55096507
DTITLE=Angel Forrest - 'Live' Love At The Palace [Disk 1]
DYEAR=2014
DGENRE=Blues Rock
TTITLE0=How You Do
TTITLE1=Mother Tongue Blues
TTITLE2=Walking Blues
TTITLE3=Holy Man
TTITLE4=Come Alive
TTITLE5=Move On
TTITLE6=I Shall Be Released
EXTD=
EXTT0=
EXTT1=
EXTT2=
EXTT3=
EXTT4=
EXTT5=
EXTT6=
PLAYORDER=
